<svg width="90" height="90" viewBox="0 0 90 90" fill="none" xmlns="http://www.w3.org/2000/svg">
<path d="M36.3531 18.4127C30.7488 18.4127 26.2056 22.9559 26.2056 28.5602C26.2056 31.9196 27.8383 34.8976 30.3521 36.7439C27.8383 38.5903 26.2056 41.5682 26.2056 44.9276C26.2056 48.2869 27.8382 51.2648 30.3518 53.1112C27.8382 54.9576 26.2056 57.9354 26.2056 61.2946C26.2056 66.9155 30.8182 71.4422 36.4058 71.4422C42.0523 71.4422 46.7132 66.8679 46.7132 61.1884V52.9462C48.4309 54.2804 50.5894 55.0752 52.9329 55.0752H53.1454C58.7497 55.0752 63.2929 50.532 63.2929 44.9276C63.2929 41.5682 61.6602 38.5903 59.1464 36.7439C61.6602 34.8976 63.2929 31.9196 63.2929 28.5602C63.2929 22.9559 58.7497 18.4127 53.1454 18.4127H36.3531ZM36.3531 38.7079H42.7853V51.1472H36.3531L36.3133 51.1473C36.313 51.1473 36.3127 51.1473 36.3123 51.1473C32.896 51.1253 30.1334 48.3491 30.1334 44.9276C30.1334 41.4926 32.918 38.7079 36.3531 38.7079ZM52.9329 51.1474C49.4978 51.1474 46.7132 48.3627 46.7132 44.9276C46.7132 41.4926 49.4978 38.7079 52.9329 38.7079H53.1454C56.5805 38.7079 59.3651 41.4926 59.3651 44.9276C59.3651 48.3627 56.5805 51.1474 53.1454 51.1474H52.9329ZM36.3122 55.0751C36.3126 55.0751 36.3129 55.0751 36.3133 55.0751L36.3308 55.0751L36.3531 55.0752H42.7853V61.1884C42.7853 64.6659 39.9159 67.5143 36.4058 67.5143C32.9546 67.5143 30.1334 64.7136 30.1334 61.2946C30.1334 57.8732 32.896 55.097 36.3122 55.0751ZM30.1334 28.5602C30.1334 25.1252 32.918 22.3405 36.3531 22.3405H42.7853V34.7799H36.3531C32.918 34.7799 30.1334 31.9953 30.1334 28.5602ZM53.1454 34.7799H46.7132V22.3405H53.1454C56.5805 22.3405 59.3651 25.1252 59.3651 28.5602C59.3651 31.9953 56.5805 34.7799 53.1454 34.7799Z" fill="#C4C4C4" stroke="#C4C4C4" stroke-width="0.722172"/>
</svg>
