<svg width="90" height="90" viewBox="0 0 90 90" fill="none" xmlns="http://www.w3.org/2000/svg">
<path d="M52.7227 63.7419C51.2 63.7419 49.9564 63.2571 48.992 62.2876C48.0277 61.318 47.5455 60.0677 47.5455 58.5368V51.4946H54.8545V56.3935H70.6909V48.2797H52.7227C51.3015 48.2797 50.0833 47.7694 49.0682 46.7488C48.053 45.7282 47.5455 44.5035 47.5455 43.0746V32.2051C47.5455 30.6742 48.0277 29.4239 48.992 28.4544C49.9564 27.4848 51.2 27 52.7227 27H72.8227C74.3455 27 75.589 27.4848 76.5534 28.4544C77.5178 29.4239 78 30.6742 78 32.2051V39.2473H70.6909V34.3484H54.8545V42.4622H72.8227C74.2439 42.4622 75.4621 42.9725 76.4773 43.9931C77.4924 45.0138 78 46.2385 78 47.6673V58.5368C78 60.0677 77.5178 61.318 76.5534 62.2876C75.589 63.2571 74.3455 63.7419 72.8227 63.7419H52.7227ZM16.1773 63.7419C14.6545 63.7419 13.411 63.2571 12.4466 62.2876C11.4822 61.318 11 60.0677 11 58.5368V48.4328H18.3091V56.3935H31.1V27H38.4091V58.5368C38.4091 60.0677 37.9269 61.318 36.9625 62.2876C35.9981 63.2571 34.7545 63.7419 33.2318 63.7419H16.1773Z" fill="#C4C4C4"/>
</svg>
