<svg width="90" height="90" viewBox="0 0 90 90" fill="none" xmlns="http://www.w3.org/2000/svg">
<path d="M51.6192 22.0798C51.4758 22.0958 51.3323 22.1278 51.1942 22.1758C50.0255 22.6118 48.6973 23.9077 48.4423 24.1637C48.4264 24.1797 48.4105 24.1957 48.3998 24.2117C47.0876 25.6916 46.3864 27.4234 46.3598 29.2273C46.3439 30.5792 46.6945 31.9191 47.4064 33.211C49.0639 36.2068 52.5064 38.6867 56.6023 39.8466C56.7405 39.8826 56.8733 39.9186 57.1123 39.9826C57.1336 39.9906 57.3355 40.0386 57.3673 40.0426L57.5161 40.0826C57.7286 40.1346 57.9464 40.1866 58.1589 40.2186C59.2373 40.3825 60.2892 40.4745 61.2773 40.4985C61.4473 40.4985 61.6173 40.5025 61.7873 40.5025C69.2408 40.5025 72.1308 36.5428 73.0923 35.2229C73.188 35.0949 73.257 34.9909 73.3208 34.9269C73.3208 34.9229 73.3208 34.9229 73.3261 34.9189C73.7458 34.451 73.5864 33.815 72.9648 33.495C72.3486 33.179 71.5039 33.299 71.0789 33.767H71.0736C69.0867 35.9708 65.6867 36.6388 60.9745 35.7589C60.6239 35.6949 60.2414 35.5949 59.9014 35.4989C59.4551 35.3789 59.0089 35.2389 58.5945 35.0869C57.7711 34.7789 56.9955 34.411 56.2942 34.003C52.1505 31.5832 50.5301 26.5475 52.9526 23.6397C53.2767 23.2517 53.2183 22.7478 52.8092 22.4078C52.5011 22.1518 52.0548 22.0358 51.6192 22.0798ZM39.5705 24.1197C39.2623 24.1157 38.9489 24.1917 38.6939 24.3516C36.638 25.6116 34.5342 27.6754 34.4439 27.7594C34.4333 27.7754 34.4226 27.7874 34.4067 27.8034C30.688 31.8791 30.4064 37.6787 33.6948 42.5784C34.2101 43.3543 34.7945 44.0943 35.4161 44.7742L35.602 44.9742C36.128 45.5542 36.7176 46.2101 37.472 46.7221C37.7323 46.9461 38.0139 47.1621 38.2902 47.3701L38.423 47.4741L38.5345 47.5581C38.8161 47.762 39.103 47.97 39.4005 48.17H39.4058C39.427 48.194 39.4589 48.21 39.4855 48.23C39.8201 48.454 40.1601 48.666 40.6117 48.934L40.7339 49.002C41.0845 49.2139 41.4405 49.4139 41.807 49.6099C41.8442 49.6299 41.8814 49.6499 41.9186 49.6699C42.0461 49.7339 42.1736 49.7939 42.3011 49.8619L42.4286 49.9259L42.5773 49.9979C42.8483 50.1339 43.1139 50.2579 43.4911 50.4219C43.7355 50.5338 43.9958 50.6458 44.1658 50.7098C44.2401 50.7418 44.3198 50.7738 44.5058 50.8498L44.9201 51.0138C44.9414 51.0218 45.037 51.0538 45.0583 51.0618C45.3292 51.1658 45.6108 51.2658 45.8923 51.3618L46.3226 51.5058C46.6042 51.5978 46.8911 51.6858 47.2417 51.7858L47.4011 51.8298C47.4117 51.8378 47.5445 51.8738 47.5551 51.8778C47.8101 51.9457 48.0705 52.0137 48.3308 52.0777L48.9258 52.2257C49.2233 52.3017 49.5686 52.3897 49.9458 52.4377C51.7998 52.6697 53.6008 52.7897 55.3061 52.7897C55.508 52.7897 55.7098 52.7857 55.9064 52.7857C70.9195 52.5377 74.8242 42.9344 74.8614 42.8384C75.0473 42.3544 74.7445 41.8384 74.1389 41.6225C73.5333 41.4065 72.8108 41.5585 72.4336 41.9744C68.6298 46.1581 61.4367 47.926 54.1108 46.4701C53.7708 46.4061 53.4414 46.3341 53.0323 46.2341C52.9633 46.2181 52.9048 46.2021 52.7933 46.1701C52.5542 46.1142 52.3205 46.0542 52.0548 45.9782L51.6776 45.8702C51.4598 45.8062 51.242 45.7422 50.9764 45.6542L50.8011 45.5942C50.477 45.4902 50.1636 45.3742 49.882 45.2702L49.1064 44.9662C48.9311 44.9022 48.777 44.8302 48.538 44.7222L48.4051 44.6662L48.2723 44.6063C48.0758 44.5183 47.8792 44.4263 47.6986 44.3303L47.5711 44.2703C47.5605 44.2663 47.4542 44.2103 47.4436 44.2023C47.2842 44.1263 47.1301 44.0503 46.9814 43.9783C46.652 43.8023 46.328 43.6183 45.9508 43.3943L45.802 43.3023C42.2958 41.1945 39.7033 38.3787 38.4867 35.3589C37.3551 32.5871 38.1945 28.9593 40.7339 25.6556C41.0633 25.2276 40.9411 24.6836 40.4364 24.3636C40.1867 24.2037 39.8786 24.1197 39.5705 24.1197ZM24.6052 27.1915C24.2811 27.1915 23.9517 27.2794 23.6914 27.4554C21.0936 29.2113 19.1492 31.4872 18.9367 31.7471C13.3798 37.8387 14.453 47.3061 18.2673 53.0937C18.3417 53.2137 18.4214 53.3297 18.5011 53.4456L18.5542 53.5096C18.6233 53.6256 18.703 53.7456 18.7295 53.7696C18.772 53.8456 18.8358 53.9296 18.8623 53.9536C18.9261 54.0536 18.9898 54.1416 19.1067 54.2936L19.5423 54.8575C19.6061 54.9335 19.6698 55.0135 19.6911 55.0415C19.7761 55.1455 19.8664 55.2535 19.9567 55.3615L20.1692 55.6175C20.233 55.6935 20.2967 55.7615 20.3392 55.8015C20.5517 56.0495 20.7642 56.2974 20.998 56.5334C21.0086 56.5454 21.0192 56.5534 21.0298 56.5614L21.1148 56.6494C21.3061 56.8574 21.5027 57.0574 21.678 57.2214L22.4536 57.9613C22.4642 57.9693 22.5492 58.0453 22.5545 58.0533L22.6661 58.1493C22.8998 58.3653 23.1495 58.5813 23.3992 58.7893C23.4364 58.8213 23.4736 58.8493 23.5108 58.8813C23.7498 59.0773 23.9942 59.2732 24.2492 59.4772L24.4936 59.6532C24.6955 59.8132 24.8973 59.9692 25.1098 60.1172C25.1098 60.1212 25.2108 60.1932 25.2108 60.1932L25.4233 60.3412C25.6783 60.5252 25.9439 60.7091 26.1458 60.8371C26.1564 60.8491 26.3476 60.9731 26.3636 60.9811C26.6133 61.1491 26.863 61.3091 27.118 61.4651L28.4195 62.241C28.6373 62.361 28.8605 62.481 29.1155 62.621C29.2005 62.669 29.2908 62.717 29.3811 62.761C29.4183 62.785 29.4608 62.809 29.4873 62.821L30.4648 63.313C30.8208 63.489 31.1767 63.6529 31.6123 63.8489L31.8461 63.9489C32.117 64.0689 32.3933 64.1889 32.6536 64.2929C32.8076 64.3569 32.9617 64.4129 33.0945 64.4649C33.2805 64.5409 33.4823 64.6249 33.7905 64.7369C33.817 64.7489 34.0348 64.8289 34.0614 64.8369C34.3695 64.9529 34.683 65.0608 35.0761 65.1928C35.0761 65.1968 35.2036 65.2408 35.2036 65.2408C35.5648 65.3568 35.9155 65.4688 36.3776 65.6088C36.452 65.6328 36.5264 65.6528 36.5423 65.6568C36.8717 65.7528 37.217 65.8488 37.4986 65.9248C37.5251 65.9328 37.6686 65.9768 37.6952 65.9848C38.0723 66.0808 38.4442 66.1728 38.9223 66.2848C39.002 66.3048 39.087 66.3248 39.0976 66.3248L39.3686 66.3888C39.698 66.4648 40.0273 66.5447 40.3833 66.5967C42.912 66.9447 45.3823 67.1247 47.7198 67.1247H47.7251C67.2061 67.1247 73.4111 55.3215 73.4748 55.2015C73.7139 54.7256 73.4536 54.1896 72.8586 53.9416C72.2742 53.6976 71.5305 53.8136 71.1161 54.2176C66.117 59.1733 56.6873 61.0131 45.8923 59.1453C45.632 59.0973 45.3664 59.0413 45.1061 58.9813L44.5961 58.8653C44.2508 58.7853 43.9055 58.6973 43.5708 58.6093C43.5655 58.6093 43.4114 58.5653 43.4114 58.5653C43.1139 58.4893 42.8164 58.4013 42.5561 58.3253L42.2586 58.2373C41.9292 58.1373 41.5998 58.0333 41.2811 57.9253L41.0951 57.8653C40.8083 57.7653 40.532 57.6694 40.2558 57.5654C40.2345 57.5574 40.0167 57.4774 39.9955 57.4734C39.8042 57.4014 39.613 57.3254 39.3686 57.2254L38.2583 56.7774C38.1467 56.7214 38.0298 56.6694 37.9183 56.6254C37.5836 56.4694 37.2383 56.3134 36.8983 56.1495C36.8186 56.1135 36.7495 56.0735 36.6167 56.0055C36.383 55.8935 36.1545 55.7775 35.8198 55.6015L35.687 55.5295C35.4586 55.4095 35.2355 55.2815 35.0495 55.1775C34.9326 55.1135 34.8158 55.0415 34.6245 54.9335C34.4545 54.8336 34.2845 54.7376 34.1251 54.6416L33.8276 54.4576C33.578 54.3056 33.3442 54.1456 33.0998 53.9896C33.068 53.9656 33.0414 53.9496 33.0042 53.9296C32.7333 53.7416 32.457 53.5536 32.1276 53.3177L31.1661 52.5977C30.9323 52.4177 30.6986 52.2337 30.433 52.0137C30.1886 51.8098 29.9548 51.6058 29.6414 51.3258L29.0676 50.7978C28.9986 50.7218 28.9242 50.6458 28.8339 50.5658C28.6373 50.3659 28.4408 50.1699 28.2442 49.9619C22.953 44.4743 21.5717 33.0191 25.6942 28.8233C26.1086 28.4034 26.0342 27.8114 25.5136 27.4554C25.2586 27.2794 24.9292 27.1915 24.6052 27.1915Z" fill="#C4C4C4"/>
</svg>
