<svg id="Layer_1" data-name="Layer 1" xmlns="http://www.w3.org/2000/svg" viewBox="0 0 575.15 575.16"><defs><style>.cls-1,.cls-2{font-size:89px;font-family:MyriadPro-Regular, Myriad Pro;}.cls-1,.cls-3{fill:none;stroke:#9babab;}.cls-1{stroke-miterlimit:10;}.cls-2{fill:#9babab;}.cls-3{stroke-linecap:round;stroke-linejoin:round;stroke-width:5px;}</style></defs><text class="cls-1" transform="translate(295.09 71.79) rotate(11.98)">W</text><text class="cls-1" transform="translate(364.7 88.19) rotate(27.07)">E</text><text class="cls-1" transform="translate(401.4 106.76) rotate(37.87)">L</text><text class="cls-1" transform="matrix(0.66, 0.75, -0.75, 0.66, 430.42, 128.02)">C</text><text class="cls-1" transform="translate(462.04 162.24) rotate(62.47)">O</text><text class="cls-1" transform="translate(489.84 212.74) rotate(79.31)">M</text><text class="cls-1" transform="matrix(-0.07, 1, -1, -0.07, 501.14, 279.76)">E</text><text class="cls-1" transform="matrix(-0.2, 0.98, -0.98, -0.2, 497.72, 321.36)"> </text><text class="cls-1" transform="translate(496.09 334.81) rotate(108.7)">T</text><text class="cls-1" transform="matrix(-0.52, 0.85, -0.85, -0.52, 485.08, 372.15)">O</text><text class="cls-2" transform="translate(453.09 421.35) rotate(131.51)"> </text><text class="cls-2" transform="translate(444.38 435.51) rotate(142.84)">M</text><text class="cls-2" transform="translate(389.69 475.65) rotate(157.94)">Y</text><text class="cls-2" transform="matrix(-0.97, 0.23, -0.23, -0.97, 346.76, 492.04)"> </text><text class="cls-2" transform="translate(330.67 497.14) rotate(174.8)">P</text><text class="cls-2" transform="matrix(-0.99, -0.14, 0.14, -0.99, 286.63, 502.1)">U</text><text class="cls-2" transform="matrix(-0.93, -0.36, 0.36, -0.93, 232.85, 494.48)">B</text><text class="cls-2" transform="translate(190.52 477.94) rotate(-147.29)">L</text><text class="cls-2" transform="matrix(-0.76, -0.65, 0.65, -0.76, 157.21, 455.86)">I</text><text class="cls-2" transform="matrix(-0.66, -0.75, 0.75, -0.66, 141.97, 444.02)">S</text><text class="cls-2" transform="matrix(-0.48, -0.88, 0.88, -0.48, 114.19, 414)">H</text><text class="cls-2" transform="translate(89.07 364.58) rotate(-108.33)">I</text><text class="cls-2" transform="translate(81.36 347.22) rotate(-98.22)">N</text><text class="cls-2" transform="matrix(0.11, -0.99, 0.99, 0.11, 73.12, 292.68)">G</text><text class="cls-2" transform="translate(80.52 238.21) rotate(-74.08)"> </text><text class="cls-2" transform="matrix(0.45, -0.89, 0.89, 0.45, 80.99, 224.57)">W</text><text class="cls-2" transform="translate(113.82 161.29) rotate(-45.78)">O</text><text class="cls-2" transform="matrix(0.85, -0.53, 0.53, 0.85, 154.53, 120.03)">R</text><text class="cls-2" transform="translate(192.74 96.08) rotate(-20.72)">L</text><text class="cls-2" transform="translate(228.78 81.06) rotate(-7.89)">D</text><polyline class="cls-3" points="186.71 264.05 237.14 213.4 287.57 162.75 338.01 213.4 388.44 264.05"/><line class="cls-3" x1="287.58" y1="162.74" x2="287.58" y2="412.4"/></svg>