<svg width="150" height="150" viewBox="0 0 150 150" fill="none" xmlns="http://www.w3.org/2000/svg">
<rect width="150" height="150" rx="30" fill="#B6B6D7"/>
<g clip-path="url(#clip0_98_153)">
<path d="M34.1652 84.4158C34.1652 73.9621 38.3013 63.9365 45.6636 56.5446C53.0259 49.1527 63.0113 45 73.4232 45C83.835 45 93.8204 49.1527 101.183 56.5446C108.545 63.9365 112.681 73.9621 112.681 84.4158" stroke="white" stroke-width="1.27428" stroke-linecap="round" stroke-linejoin="round"/>
<path d="M21.2647 63.5395C22.3908 63.842 23.3909 64.4981 24.1191 65.412C24.8472 66.3258 25.2652 67.4495 25.3119 68.6189C25.343 69.7861 24.9726 70.9284 24.2631 71.8535C23.5536 72.7787 22.5484 73.4301 21.4165 73.6983C22.174 73.8866 22.9647 73.8965 23.7266 73.7271C24.4886 73.5577 25.2012 73.2136 25.8087 72.7217C26.4161 72.2299 26.902 71.6035 27.2284 70.8918C27.5547 70.18 27.7126 69.4021 27.6897 68.6189C27.6897 68.6189 27.7909 63.0824 21.2647 63.5395Z" stroke="white" stroke-width="1.27428" stroke-linecap="round" stroke-linejoin="round"/>
<path d="M128.01 64.7588C126.876 65.0464 125.867 65.6984 125.136 66.6154C124.405 67.5325 123.993 68.6642 123.963 69.8381C123.932 71.0053 124.302 72.1476 125.011 73.0728C125.721 73.9979 126.726 74.6494 127.858 74.9175C127.101 75.1059 126.31 75.1158 125.548 74.9463C124.786 74.7769 124.073 74.4328 123.466 73.941C122.858 73.4491 122.373 72.8228 122.046 72.111C121.72 71.3992 121.562 70.6213 121.585 69.8381C121.585 69.8381 121.484 64.3016 128.01 64.7588Z" stroke="white" stroke-width="1.27428" stroke-linecap="round" stroke-linejoin="round"/>
<path d="M38.516 36.4663V46.625C39.8577 46.625 41.1445 46.0899 42.0932 45.1373C43.042 44.1847 43.575 42.8928 43.575 41.5457C43.575 40.1985 43.042 38.9066 42.0932 37.954C41.1445 37.0015 39.8577 36.4663 38.516 36.4663Z" stroke="white" stroke-width="1.27428" stroke-linecap="round" stroke-linejoin="round"/>
<path d="M110.5 47.5088V37.3501C109.159 37.3501 107.872 37.8852 106.923 38.8378C105.974 39.7903 105.441 41.0823 105.441 42.4294C105.441 43.7766 105.974 45.0685 106.923 46.0211C107.872 46.9736 109.159 47.5088 110.5 47.5088Z" stroke="white" stroke-width="1.27428" stroke-linecap="round" stroke-linejoin="round"/>
<path d="M74.6373 38.7013C76.9564 38.7013 78.8363 36.8138 78.8363 34.4854C78.8363 32.157 76.9564 30.2695 74.6373 30.2695C72.3183 30.2695 70.4383 32.157 70.4383 34.4854C70.4383 36.8138 72.3183 38.7013 74.6373 38.7013Z" stroke="white" stroke-width="1.27428" stroke-linecap="round" stroke-linejoin="round"/>
<path d="M122.85 86.2954C86.8801 109.559 65.7335 94.7272 65.7335 94.7272C35.3794 75.07 21.7706 103.921 21.7706 103.921C21.7706 103.921 17.9764 128.962 97.6558 98.8415" stroke="white" stroke-width="1.27428" stroke-linecap="round" stroke-linejoin="round"/>
<path d="M55.4637 89.5964C57.7817 88.2169 59.768 86.3408 61.2809 84.1019C62.7937 81.863 63.7958 79.3165 64.2157 76.644C65.4738 79.296 66.0969 82.2066 66.0354 85.1433C65.9739 88.0801 65.2295 90.9618 63.8616 93.5583" stroke="white" stroke-width="1.27428" stroke-linecap="round" stroke-linejoin="round"/>
<path d="M56.0012 105.171C56.0012 105.171 69.6099 112.384 72.3418 121.933C72.3418 121.933 77.4008 113.857 66.6757 104.054" stroke="white" stroke-width="1.27428" stroke-linecap="round" stroke-linejoin="round"/>
<path d="M115.362 94.7779C119.951 93.0328 124.11 90.3125 127.555 86.8032" stroke="white" stroke-width="1.27428" stroke-linecap="round" stroke-linejoin="round"/>
</g>
<defs>
<clipPath id="clip0_98_153">
<rect width="109.224" height="92.7491" fill="white" transform="translate(20 29)"/>
</clipPath>
</defs>
</svg>
